<?xml version="1.0" encoding="UTF-8" standalone="no"?>
<!-- Creator: CorelDRAW -->

<svg
   xmlns:dc="http://purl.org/dc/elements/1.1/"
   xmlns:cc="http://creativecommons.org/ns#"
   xmlns:rdf="http://www.w3.org/1999/02/22-rdf-syntax-ns#"
   xmlns:svg="http://www.w3.org/2000/svg"
   xmlns="http://www.w3.org/2000/svg"
   xmlns:sodipodi="http://sodipodi.sourceforge.net/DTD/sodipodi-0.dtd"
   xmlns:inkscape="http://www.inkscape.org/namespaces/inkscape"
   xml:space="preserve"
   width="987.4729"
   height="996.65625"
   style="fill-rule:evenodd"
   viewBox="0 0 987.4729 996.65625"
   version="1.0"
   id="svg2"
   inkscape:version="0.47 r22583"
   sodipodi:docname="ZZ.svg"><metadata
   id="metadata28"><rdf:RDF><cc:Work
       rdf:about=""><dc:format>image/svg+xml</dc:format><dc:type
         rdf:resource="http://purl.org/dc/dcmitype/StillImage" /></cc:Work></rdf:RDF></metadata><sodipodi:namedview
   pagecolor="#ffffff"
   bordercolor="#666666"
   borderopacity="1"
   objecttolerance="10"
   gridtolerance="10"
   guidetolerance="10"
   inkscape:pageopacity="0"
   inkscape:pageshadow="2"
   inkscape:window-width="1280"
   inkscape:window-height="1004"
   id="namedview26"
   showgrid="false"
   inkscape:zoom="0.28808594"
   inkscape:cx="1028.813"
   inkscape:cy="159.08765"
   inkscape:window-x="-8"
   inkscape:window-y="-8"
   inkscape:window-maximized="1"
   inkscape:current-layer="Слой_x0020_1" />
 <defs
   id="defs4"><inkscape:perspective
   sodipodi:type="inkscape:persp3d"
   inkscape:vp_x="0 : 300 : 1"
   inkscape:vp_y="0 : 1000 : 0"
   inkscape:vp_z="1200 : 300 : 1"
   inkscape:persp3d-origin="600 : 200 : 1"
   id="perspective30" />
  <style
   type="text/css"
   id="style6">
   
    .str0 {stroke:black;stroke-width:0.363}
    .fil2 {fill:none}
    .fil1 {fill:#003399}
    .fil0 {fill:#CC0000}
    .fil3 {fill:gold}
   
  </style>
 <inkscape:perspective
   id="perspective3620"
   inkscape:persp3d-origin="0.5 : 0.33333333 : 1"
   inkscape:vp_z="1 : 0.5 : 1"
   inkscape:vp_y="0 : 1000 : 0"
   inkscape:vp_x="0 : 0.5 : 1"
   sodipodi:type="inkscape:persp3d" /><inkscape:perspective
   id="perspective2839"
   inkscape:persp3d-origin="0.5 : 0.33333333 : 1"
   inkscape:vp_z="1 : 0.5 : 1"
   inkscape:vp_y="0 : 1000 : 0"
   inkscape:vp_x="0 : 0.5 : 1"
   sodipodi:type="inkscape:persp3d" /></defs>
 <g
   id="Слой_x0020_1"
   transform="matrix(1.6783333,0,0,1.6611047,-21.72188,0.0070112)">
  <metadata
   id="CorelCorpID_0Corel-Layer" />
  <path
   style="fill:#cc0000"
   d="m -901.3125,-277.28125 -8.1875,7.15625 -1.0625,1.0625 -4.3125,3.21875 -1.0625,1.09375 -3.25,1.0625 -1.0625,1.09375 -9.6875,0 c -0.71385,0.0205 -2.32283,0.17785 -2.15625,-1.09375 l -1.09375,0 c -0.71386,0.0205 -2.32282,0.2091 -2.15625,-1.0625 l -3.21875,-1.09375 -1.0625,-1.0625 -1.09375,0 c -0.71386,0.0205 -2.32282,0.17785 -2.15625,-1.09375 l -10.75,-3.21875 c -0.71386,0.0205 -2.32282,0.2091 -2.15625,-1.0625 l -1.09375,0 c 0.16689,1.27203 -1.44196,1.0825 -2.15625,1.0625 l -1.0625,1.09375 c -1.2921,6.61103 5.57121,8.74711 9.6875,11.84375 l 1.0625,1.0625 3.25,2.15625 1.0625,1.0625 1.09375,1.09375 c 1.27203,-0.16689 1.0825,1.44196 1.0625,2.15625 l 0,1.0625 -1.0625,1.09375 0,1.0625 -1.09375,1.09375 -1.0625,1.0625 -1.09375,1.0625 -2.15625,0 c 0.16689,1.27203 -1.41071,1.11375 -2.125,1.09375 l -12.9375,0 -9.40625,-0.28125 -0.28125,-0.8125 -2.15625,0 -0.28125,0.8125 -18.03125,0.28125 -8.5937,-1.09375 c -0.7139,0.0205 -2.3228,0.2091 -2.1563,-1.0625 l -1.0937,0 -1.0626,-1.0625 -1.0937,0 -1.0625,-1.09375 -1.0625,0 -1.0937,-1.0625 -4.3126,-1.09375 -6.4374,0 -1.0938,1.09375 -1.0625,1.0625 -1.0937,1.09375 -1.0626,1.0625 -6.4687,8.625 -1.0625,1.0625 -1.0938,1.09375 -1.0624,1.0625 c -3.032,1.0454 -6.2808,1.30681 -9.6876,1.0625 l -1.0937,-1.0625 -1.0625,-1.0625 -1.0938,-1.09375 c -0.016,-2.25249 0.3976,-4.63941 -1.0624,-6.46875 l -1.0938,-1.0625 c -1.4482,-0.35962 -2.9358,0.76621 -3.2188,2.15625 l -1.0937,1.0625 -3.2187,2.15625 -1.0626,1.09375 -1.0937,1.0625 -3.2187,1.09375 c 0.1668,1.27203 -1.442,1.0826 -2.1563,1.0625 l -3.2187,0 c -1.1899,2.14482 -5.1267,0.8577 -7.2813,0.8125 l -0.2813,-0.8125 c -1.1595,-0.11069 -2.739,0.41173 -3.5,-0.8125 -5.531,-0.0452 -7.7237,-6.3514 -12.625,-7.8125 l -1.0937,-1.0625 -1.0625,0 -1.0938,-1.09375 -1.0624,0 -9.6876,0 -1.0937,0 -1.0625,1.09375 c -3.2033,1.23068 -4.5335,6.3561 -8.625,5.375 -0.4813,1.71952 -4.8935,1.71952 -5.375,0 l -5.4062,-2.15625 -1.0626,-1.0625 -5.375,-4.3125 -1.0937,-1.0625 -1.0625,-1.09375 -2.1562,-1.0625 -1.0938,-1.09375 -1.0625,0 -1.0625,-1.0625 -8.625,-2.15625 c -0.7139,0.0205 -2.3229,0.17785 -2.1562,-1.09375 -1.0197,0.20436 -3.1588,-0.62038 -3.2188,1.09375 l -1.0938,5.375 0,3.21875 -1.0624,1.09375 c -0.2057,5.4837 -6.5422,7.23819 -10.7813,8.625 0.1669,1.27203 -1.4419,1.0826 -2.1563,1.0625 l -2.1562,0 -0.25,0.8125 c -2.5928,0.44738 -5.5011,0.44738 -8.0938,0 l -0.25,-0.8125 -1.0937,0 -1.0625,-1.0625 -3.25,-1.09375 c -0.7139,0.0205 -2.2916,0.2091 -2.125,-1.0625 l -1.0938,0 -5.375,1.0625 -2.1562,0 c 0.1668,1.27203 -1.4419,1.11385 -2.1562,1.09375 l -4.3126,2.125 -1.0624,1.09375 -5.4063,2.15625 -1.0625,1.0625 -5.375,1.09375 c -0.06,1.71413 -2.2303,0.85814 -3.25,1.0625 l -1.0625,0 -4.3125,1.09375 -9.6875,0 c -1.0196,-0.20436 -3.1588,0.62038 -3.2187,-1.09375 l -15.0938,1.09375 -2.1562,0 c 0.1668,1.27203 -1.442,1.0826 -2.1563,1.0625 l -1.0625,0 c 0.1668,1.27203 -1.4419,1.11385 -2.1562,1.09375 -1.3825,0.51898 -2.6994,1.83625 -3.2188,3.21875 l -1.0938,1.0625 -1.0624,1.09375 -1.0938,1.0625 -1.0625,1.09375 -3.2187,2.15625 -1.0938,1.0625 -2.1562,1.09375 -1.0626,1.0625 -2.1562,1.09375 c 0.1668,1.27203 -1.4419,1.0826 -2.1562,1.0625 -4.9529,1.84183 -10.7425,0.81346 -16.1563,1.0625 l -2.1563,-1.0625 -4.3124,0 c -0.714,0.0205 -2.3228,0.2091 -2.1563,-1.0625 l -18.2813,0 c -1.0197,-0.20436 -3.19,0.62038 -3.25,-1.09375 l -2.1562,0 c -0.7139,0.0205 -2.2916,0.2091 -2.125,-1.0625 l -3.25,0 -1.0625,-1.09375 -1.0937,0 c -0.714,0.0205 -2.3228,0.2091 -2.1563,-1.0625 l -1.0625,0 c -0.7139,0.0205 -2.3229,0.17785 -2.1562,-1.09375 l -4.3126,-1.0625 c -1.0197,-0.20436 -3.1587,0.62039 -3.2187,-1.09375 -3.4067,-0.24441 -6.6555,0.0483 -9.6875,1.09375 l -1.0938,1.0625 -1.0624,0 -1.0938,1.09375 -2.1562,1.0625 -1.0626,1.09375 -2.1562,1.0625 -1.0625,1.09375 -2.1563,1.0625 -1.0937,1.0625 c -3.4067,0.24441 -6.6555,-0.0171 -9.6875,-1.0625 l 0,7.53125 c -0.7893,2.9642 2.304,4.7544 2.1562,7.53125 l 1.0626,1.09375 0,1.0625 c 1.2719,-0.16689 1.1137,1.44196 1.0937,2.15625 l 0,7.53125 1.0625,4.3125 1.0938,1.09375 1.0624,1.0625 1.0938,1.09375 1.0625,0 1.0937,1.0625 4.3126,1.0625 c 0.7138,-0.0205 2.2916,-0.17785 2.125,1.09375 5.7443,-1.34266 8.2226,4.99688 12.9374,6.46875 l 9.4063,0.25 0.2813,0.8125 4.0312,1.34375 c 1.3674,5.78303 6.6278,9.15562 9.9688,13.71875 l 1.0624,1.09375 5.4063,6.46875 1.0625,1.0625 1.0938,2.15625 1.0624,1.0625 1.0626,2.15625 1.0937,1.09375 0,6.46875 1.0625,2.125 1.0938,15.09375 c -0.6106,3.41105 1.4517,6.13799 2.9687,8.875 l 0.25,1.875 1.0937,1.09375 1.0626,3.21875 c 1.2719,-0.16689 1.1137,1.44196 1.0937,2.15625 l 1.0625,3.21875 1.0625,1.09375 1.0937,2.15625 1.0626,1.0625 2.1562,4.3125 1.0938,1.09375 0,1.0625 1.0624,1.0625 4.3126,9.71875 1.0624,1.0625 0,1.0625 c 1.7142,0.0603 0.8894,2.23024 1.0938,3.25 0.6729,5.07026 -0.7501,9.53163 -2.1562,14 l -1.0626,1.0625 0,1.09375 c 0.021,0.71386 0.178,2.32282 -1.0937,2.15625 -0.7816,5.36527 7.9341,10.61804 2.4375,15.34375 l -1.3438,2.9375 -1.0937,1.09375 0,1.0625 -1.0625,1.09375 0,1.0625 -1.0938,1.09375 0,1.0625 -1.0624,1.0625 c -1.2997,3.17093 -3.9611,5.96424 -3.25,9.71875 l -1.0626,1.0625 -4.3124,7.53125 -1.0626,1.09375 -2.1562,3.21875 -1.0938,1.0625 -2.1562,3.25 -1.0625,1.0625 -1.0937,2.15625 -1.0626,1.09375 -1.0624,1.0625 -1.0938,1.09375 -1.0625,1.0625 -1.0937,1.0625 -1.0626,1.09375 -1.0937,1.0625 -1.0625,1.09375 -1.0938,2.15625 c 1.6604,2.44199 2.3143,8.89771 -2.1562,8.59375 l -1.0625,1.09375 -0.8125,0.25 c -0.5847,3.46456 -4.7964,5.29684 -7.5312,3.25 l -7.8126,7.25 -1.0624,1.09375 -1.5938,1.0625 -1.6562,0 -1.0626,-1.0625 -0.8124,0.25 c 0.5329,3.24199 -1.997,4.92001 -3.5,7.28125 l 2.4374,2.96875 c 3.3659,1.67106 8.5938,2.83138 8.5938,7.53125 4.2853,3.58654 7.3654,7.92387 10.25,12.375 0.438,1.17148 0.438,2.60978 0,3.78125 -4.2896,0.78708 -4.4553,5.3692 -4.0625,8.875 -2.2987,4.17766 -1.0732,9.786142 -5.0937,13.1875 l -0.2813,2.96875 c 1.2468,1.48048 0.93,3.33765 1.3437,5.125 5.6366,7.02019 12.208,13.46557 16.1563,21.53125 3.0472,1.18222 6.0436,1.86878 8.0625,4.84375 1.9731,5.56662 5.564,11.85929 2.1562,17.75 l -3.75,0.53125 -0.2812,1.90625 c 4.2358,6.40646 8.5818,12.7181 13.7188,18.5625 l 0.2812,6.1875 c -4.1239,6.2428 -13.8034,1.58436 -18.5625,7.28125 -1.7119,0.74078 -3.5582,1.25762 -4.8437,2.6875 -0.4435,1.52249 -0.4435,3.32127 0,4.84375 8.7968,7.91171 18.8567,15.1592 30.9374,15.34375 l 2.4376,1.875 4.0312,0.28125 3.5,1.875 c 10.0241,2.05655 18.7985,7.78303 26.9062,14 5.2695,2.47428 10.3702,5.26672 15.0938,8.625 l 8.3438,1.34375 19.0937,0.25 0.2813,0.8125 8.5937,2.15625 12.125,-8.34375 c 6.5465,-2.06729 14.6623,-2.31619 19.375,3.78125 1.9984,0.93393 3.8445,1.77476 6.1875,1.34375 5.0724,-1.45034 8.401,-10.38562 14,-7.53125 1.1596,0.11069 2.7389,-0.44299 3.5,0.78125 l 2.9688,0.28125 c 6.0188,-4.55504 13.4701,-4.20569 20.4687,-5.375 l 8.875,7.25 c 6.7618,-0.0883 13.1377,2.22326 18.3125,6.46875 13.7065,4.3607 23.5368,16.03633 37.125,21 l 5.9375,9.15625 12.375,9.15625 c 0.1712,1.41479 1.1656,2.31064 2.1563,3.21875 l 2.6874,13.46875 c 2.6961,5.73996 11.2647,8.81648 9.4376,16.40625 l 0.25,2.96875 9.1562,0.53125 c 1.3857,2.16743 1.3125,4.51709 1.625,7 l 10.75,7.53125 c 4.9938,-0.2422 12.4752,0.90405 11.8438,7.53125 1.9477,3.4541 5.8929,2.9819 8.0937,5.9375 l 0.53125,4.84375 c 3.0439,2.9017 5.53925,6.1355 7.53125,9.6875 3.2409,1.9145 5.9192,4.75005 8.625,7.53125 l 2.96875,0.28125 29.0625,-8.625 4.03125,0.28125 c 1.544,1.8961 3.47051,3.17305 5.65625,4.03125 15.3109,0.8507 25.47818,-12.41535 35.8125,-22.34375 3.57039,-1.1637 7.38141,-1.937 11.28125,-1.0625 l 8.625,4.28125 17.75,23.15625 c 7.08418,6.3855 11.77471,14.72525 12.59375,23.96875 l -1,0 c 0.78708,4.3877 -1.30952,7.92985 -2.15625,11.84375 0.0205,0.7139 0.17785,2.32285 -1.09375,2.15625 l 0,2.15625 -1.0625,4.3125 0,4.28125 1.0625,1.09375 c 0.19381,1.024 1.13229,1.96285 2.15625,2.15625 l 1.09375,1.0625 1.0625,0 c 0.71385,-0.0205 2.32282,-0.17785 2.15625,1.09375 l 5.40625,-1.09375 1.0625,-1.0625 c 1.02397,-0.1938 1.96276,-1.13225 2.15625,-2.15625 l 1.0625,-1.09375 0,-2.15625 c -0.0205,-0.7139 -0.17785,-2.2916 1.09375,-2.125 1.33513,-7.2678 10.63808,-5.12335 16.15625,-5.40625 l 1.0625,1.09375 2.15625,0 1.0625,1.0625 2.15625,1.09375 1.09375,1.0625 c 2.60565,1.3492 3.66464,4.88465 4.3125,7.53125 l 1.0625,1.09375 0,2.15625 c 1.71412,0.0603 0.88939,2.19905 1.09375,3.21875 l 0,3.21875 c 1.71412,0.0603 0.85814,2.2302 1.0625,3.25 l 0,1.0625 1.0625,1.09375 0,1.0625 1.09375,1.09375 c 0.71386,-0.0205 2.32282,-0.2091 2.15625,1.0625 l 1.0625,0 15.875,0.28125 0.28125,0.78125 3.21875,0 1.09375,1.09375 1.0625,0 1.09375,1.0625 1.0625,1.09375 c 1.3825,0.519 2.73059,1.83625 3.25,3.21875 l 1.0625,1.09375 1.09375,1.0625 1.0625,2.15625 1.0625,1.0625 1.09375,1.09375 1.0625,1.0625 1.09375,1.09375 3.21875,1.0625 4.3125,0 7.53125,-3.21875 1.09375,-1.09375 2.15625,-1.0625 1.0625,-1.0625 2.15625,-1.09375 1.0625,-1.0625 2.15625,-1.09375 1.09375,-1.0625 2.15625,-1.09375 1.0625,-1.0625 2.15625,-1.09375 1.0625,-1.0625 1.09375,0 1.0625,-1.09375 2.15625,0 2.15625,0 2.15625,-1.0625 1.09375,-1.0625 1.0625,-1.09375 4.3125,-3.21875 1.0625,-1.09375 5.40625,-2.15625 c 0.0603,-1.7141 2.19898,-0.8581 3.21875,-1.0625 l 2.15625,0 0.25,-0.8125 c 3.30875,-0.448 6.94124,-0.448 10.25,0 l 0.25,0.8125 4.3125,0 1.09375,-1.09375 2.15625,-1.0625 1.0625,-1.0625 1.0625,0 1.09375,-1.09375 2.15625,-1.0625 1.0625,-1.09375 2.15625,-1.0625 c 0.48129,-1.7195 4.89349,-1.7195 5.375,0 l 1.09375,0 c 0.71387,-0.0204 2.32281,-0.2092 2.15625,1.0625 L -664,421.125 c 0.71386,-0.0205 2.32282,-0.2091 2.15625,1.0625 l 1.0625,0 1.09375,1.09375 1.0625,0 1.09375,1.0625 1.0625,0 1.09375,1.0625 3.21875,2.15625 1.0625,1.09375 c 1.02397,0.1938 1.96276,1.13225 2.15625,2.15625 l 1.09375,1.0625 1.0625,10.78125 c -0.20436,1.0196 0.65162,3.15875 -1.0625,3.21875 l 1.0625,12.9375 0,2.125 c 1.27204,-0.1669 1.11375,1.44205 1.09375,2.15625 l 1.0625,4.3125 1.09375,1.09375 0,2.15625 c 1.71953,0.4812 1.71953,4.8934 0,5.375 l 0,1.0625 -1.09375,1.09375 -1.0625,2.15625 -1.09375,1.0625 -1.0625,1.09375 -2.15625,3.21875 -1.09375,1.0625 -5.375,6.46875 -1.0625,1.09375 -1.09375,1.0625 c -1.0455,3.032 -1.3068,6.2808 -1.0625,9.6875 l 1.0625,1.09375 c 0.28318,1.3901 1.80181,2.4842 3.25,2.125 l 5.375,1.09375 2.15625,0 c 1.01965,0.2043 3.15865,-0.6516 3.21875,1.0625 l 2.15625,0 c 0.71385,-0.0204 2.32283,-0.17785 2.15625,1.09375 l 1.0625,0 c 0.71385,-0.0205 2.32283,-0.2091 2.15625,1.0625 1.02396,0.1938 1.96275,1.13225 2.15625,2.15625 l 1.09375,1.09375 1.0625,2.15625 1.09375,1.0625 2.15625,3.21875 1.0625,1.09375 1.0625,1.0625 5.40625,4.3125 1.0625,1.09375 2.15625,1.0625 1.09375,1.0625 2.125,1.09375 1.09375,1.0625 1.0625,0 1.09375,1.09375 2.15625,0 1.0625,1.0625 1.09375,0 1.0625,1.09375 2.15625,0 1.0625,1.0625 3.25,1.09375 1.0625,1.0625 1.09375,0 1.0625,1.09375 1.09375,1.0625 2.15625,1.0625 1.0625,1.09375 1.0625,1.0625 1.09375,1.09375 1.0625,1.0625 1.09375,1.09375 0,1.0625 1.0625,1.09375 0,1.0625 c 1.71413,0.0603 0.88939,2.19895 1.09375,3.21875 0.0205,0.7139 0.17786,2.32285 -1.09375,2.15625 l 0,3.25 -1.0625,1.0625 0,1.09375 -1.09375,1.0625 -1.0625,1.09375 -1.09375,1.0625 -4.28125,5.375 -1.09375,1.09375 -1.0625,1.0625 0,1.09375 -1.09375,1.0625 0,3.21875 0,4.3125 0,4.3125 1.09375,1.09375 0,1.0625 1.0625,1.09375 1.09375,2.125 1.0625,1.09375 1.09375,2.15625 1.0625,1.0625 1.0625,1.09375 2.15625,3.21875 1.09375,1.09375 2.15625,3.21875 1.0625,1.0625 1.09375,1.09375 0,1.0625 1.0625,1.09375 0,1.0625 1.09375,1.09375 1.0625,2.15625 1.0625,1.0625 1.09375,2.15625 1.0625,1.0625 0,1.09375 1.09375,1.0625 3.21875,8.625 1.09375,1.0625 1.0625,4.3125 c 1.27204,-0.1669 1.11375,1.44195 1.09375,2.15625 1.35343,3.1515 2.43307,6.3713 3.21875,9.6875 1.27203,-0.1668 1.0825,1.44195 1.0625,2.15625 1.27203,-0.1669 1.11375,1.44195 1.09375,2.15625 l 0,1.0625 c 1.27202,-0.1668 1.0825,1.44195 1.0625,2.15625 l 1.09375,4.3125 1.0625,1.09375 0,2.15625 1.09375,1.0625 1.0625,4.3125 c 1.27203,-0.1669 1.11375,1.44205 1.09375,2.15625 l 0,1.0625 c 1.27202,-0.1669 1.0825,1.44195 1.0625,2.15625 l 0,1.09375 c 1.27203,-0.1669 1.11375,1.4107 1.09375,2.125 l 0,1.09375 c 1.27202,-0.1669 1.0825,1.44195 1.0625,2.15625 l 0,1.0625 1.0625,1.09375 1.09375,3.21875 1.0625,1.09375 0,1.0625 1.09375,1.0625 1.0625,2.15625 1.09375,1.09375 2.15625,4.3125 1.0625,1.0625 1.09375,2.15625 1.0625,1.0625 1.0625,1.09375 0,1.0625 1.09375,1.09375 1.0625,1.0625 1.09375,2.15625 1.0625,1.09375 1.09375,2.15625 1.0625,1.0625 2.15625,5.375 c 1.27203,-0.1669 1.11425,1.44195 1.09375,2.15625 l 1.0625,1.09375 1.0625,0 c 0.0603,-1.7141 2.23024,-0.88945 3.25,-1.09375 l 1.0625,0 1.09375,-1.0625 1.0625,-1.09375 1.09375,-1.0625 c 2.29879,-0.8948 3.38178,-4.3106 6.4375,-3.25 -0.16688,-1.272 1.44197,-1.0825 2.15625,-1.0625 l 1.09375,-1.0625 8.59375,-6.46875 1.09375,-1.09375 2.15625,-1.0625 1.0625,-1.09375 1.09375,-1.0625 1.0625,0 1.09375,-1.0625 1.0625,0 4.3125,-1.09375 2.15625,0 c -0.16689,-1.272 1.44196,-1.0825 2.15625,-1.0625 l 1.0625,0 1.09375,-1.09375 1.0625,0 c -0.16689,-1.272 1.44196,-1.0825 2.15625,-1.0625 2.61856,-1.5969 5.3873,-2.68845 8.625,-2.15625 l 1.0625,1.0625 2.15625,0 c 0.71386,-0.0205 2.32282,-0.17805 2.15625,1.09375 l 9.6875,4.3125 1.0625,1.0625 1.09375,0 1.0625,0 9.6875,0 3.25,0 c 0.7138,-0.0205 2.32285,-0.2091 2.15625,1.0625 l 2.15625,0 c 0.7138,-0.0204 2.2915,-0.17785 2.125,1.09375 l 3.25,0 5.375,1.0625 4.3125,2.15625 1.0625,-1.0625 -1.0625,-2.15625 c -1.2721,0.1669 -1.11475,-1.44205 -1.09375,-2.15625 -1.272,0.1668 -1.0835,-1.44195 -1.0625,-2.15625 l 0,-1.0625 -1.0625,-1.09375 0,-1.0625 -1.09375,-1.09375 0,-1.0625 -1.0625,-1.09375 0,-1.0625 -1.09375,-1.09375 0,-1.0625 -1.0625,-1.0625 0,-1.09375 -1.09375,-1.0625 -1.0625,-3.25 c -1.2721,0.1668 -1.11475,-1.44195 -1.09375,-2.15625 l 0,-3.21875 c -1.7141,-0.0602 -0.8581,-2.19895 -1.0625,-3.21875 l 0,-4.3125 1.0625,-4.3125 0,-3.21875 c 0.2044,-1.0197 -0.62045,-3.19 1.09375,-3.25 0.2465,-1.4275 1.68205,-2.13535 2.96875,-2.40625 l 1.34375,-8.34375 c -0.0205,-0.7139 -0.2091,-2.32285 1.0625,-2.15625 l 1.09375,-5.375 -1.09375,-2.15625 -1.0625,-1.09375 0,-1.0625 -0.8125,-0.28125 -0.28125,-9.40625 0,-3.25 c -1.7141,-0.0603 -0.8581,-2.19905 -1.0625,-3.21875 l -1.09375,-4.3125 c -1.2721,0.1669 -1.0835,-1.44195 -1.0625,-2.15625 l 0,-1.0625 0,-3.25 -1.09375,-1.0625 -3.21875,-2.15625 -1.0625,-1.0625 c -1.5591,-1.1677 -3.45845,-1.24445 -5.40625,-1.09375 -1.0196,-0.2044 -3.15875,0.6516 -3.21875,-1.0625 l -4.3125,-1.09375 -1.0625,-1.0625 0,-2.15625 c -1.2721,0.1669 -1.11375,-1.44195 -1.09375,-2.15625 0.1669,-1.272 -1.44205,-1.11375 -2.15625,-1.09375 l -1.0625,-1.0625 -1.09375,0 -1.0625,-1.0625 -1.09375,-1.09375 -1.0625,-1.0625 -1.0625,-1.09375 -1.09375,-5.375 1.09375,-4.3125 0,-3.21875 c -0.0205,-0.7138 -0.2091,-2.32285 1.0625,-2.15625 l 0,-2.15625 1.0625,-1.09375 1.09375,-1.0625 1.0625,-1.09375 1.09375,-1.0625 6.46875,-1.0625 c 0.2014,-1.6743 4.08015,-1.6743 4.28125,0 l 2.15625,0 1.09375,1.0625 2.15625,0 1.0625,1.0625 2.15625,1.09375 1.0625,1.0625 c 1.0239,0.1938 1.96275,1.13235 2.15625,2.15625 l 2.15625,-1.0625 c 0.4985,-2.5557 3.43265,-2.24225 5.40625,-2.15625 l 1.0625,1.0625 1.0625,1.09375 2.15625,4.3125 1.09375,1.0625 c 0.9109,2.0672 3.6244,-2.07745 4.3125,-3.21875 l 1.0625,-1.09375 1.09375,-1.0625 1.0625,-1.09375 1.0625,-1.0625 2.15625,-1.09375 1.09375,-1.0625 3.21875,-1.0625 0.28125,-0.8125 9.40625,-0.28125 0,-1.0625 -1.0625,-1.09375 -1.09375,-1.0625 -7.53125,-6.46875 -1.0625,-1.0625 -1.09375,-1.09375 -1.0625,-1.0625 -1.09375,-1.09375 -1.0625,-1.0625 -4.3125,0 -1.0625,-1.09375 -1.09375,0 -1.0625,-1.0625 -2.15625,-3.25 -1.09375,-1.0625 -1.0625,-1.0625 0,-1.09375 -1.09375,-1.0625 0,-1.09375 -1.0625,-1.0625 -1.0625,-3.25 c -1.272,0.1668 -1.11475,-1.44195 -1.09375,-2.15625 l 0,-3.21875 c -1.7142,-0.0603 -0.8582,-2.19895 -1.0625,-3.21875 l 0,-2.15625 c -1.2721,0.1668 -1.11475,-1.44195 -1.09375,-2.15625 -1.272,0.1669 -1.0835,-1.44195 -1.0625,-2.15625 l 0,-2.15625 -1.09375,-1.0625 c 0.1668,-1.272 -1.44195,-1.11375 -2.15625,-1.09375 -0.7871,1.7453 -5.6499,1.7453 -6.4375,0 l -1.09375,0 c -0.7139,0.0204 -2.32285,0.2092 -2.15625,-1.0625 l -1.0625,0 -1.09375,-1.09375 -3.21875,-1.0625 -1.0625,-1.09375 -1.09375,0 -1.0625,-1.0625 -1.09375,0 -1.0625,-1.09375 -1.09375,0 -1.0625,-1.0625 -2.15625,-1.0625 -1.09375,-1.09375 -2.125,-1.0625 -1.09375,-1.09375 c -1.3825,-0.519 -2.69933,-1.83625 -3.21875,-3.21875 l -1.09375,-1.09375 -1.0625,-1.0625 0,-1.09375 -1.09375,-1.0625 0,-1.0625 -1.0625,-1.09375 0,-1.0625 -1.09375,-1.09375 0,-1.0625 c -1.71413,-0.0603 -0.85814,-2.2303 -1.0625,-3.25 l 0,-3.21875 c -1.59139,0.0441 -1.59139,-3.26275 0,-3.21875 -0.51467,-4.6751 3.89668,-7.3958 6.71875,-10.5 l 9.4375,-0.28125 c -0.1669,-1.272 1.44195,-1.0825 2.15625,-1.0625 l 2.15625,-1.09375 1.0625,-1.0625 10.78125,-9.6875 1.0625,-1.09375 1.09375,0 c -0.2391,-1.4353 2.3642,-1.4353 2.125,0 l 4.3125,1.09375 1.09375,-1.09375 -2.15625,-6.46875 c -1.5914,0.0442 -1.5914,-3.26275 0,-3.21875 l 1.0625,-3.21875 1.09375,-1.09375 1.0625,-1.0625 1.09375,-1.09375 1.0625,-1.0625 1.09375,0 1.0625,-1.09375 1.0625,0 4.3125,-1.0625 0,-1.0625 -1.0625,-1.09375 0,-1.0625 c -1.272,0.1669 -1.11475,-1.44195 -1.09375,-2.15625 l -1.0625,-3.25 -1.09375,-1.0625 -1.0625,-2.15625 -1.0625,-1.0625 -1.09375,-1.09375 -1.0625,-1.0625 -1.09375,-1.09375 -2.15625,0 c -0.7139,0.0204 -2.32285,0.2092 -2.15625,-1.0625 -1.6625,-0.3531 -2.95375,0.2962 -4.28125,1.0625 0.1668,1.272 -1.44195,1.11375 -2.15625,1.09375 l -7.5625,-1.09375 -11.84375,0 c -0.71391,0.0204 -2.29157,0.2092 -2.125,-1.0625 l -3.25,0 -1.0625,-1.09375 c -1.02396,-0.1938 -1.96276,-1.13225 -2.15625,-2.15625 l -1.09375,-1.0625 -2.15625,-4.3125 -1.0625,-4.3125 -5.375,0 -1.09375,-1.0625 -4.3125,-3.25 c 0.16689,1.2721 -1.41071,1.11375 -2.125,1.09375 l -1.09375,0 -1.0625,1.0625 -3.25,1.09375 -1.0625,1.0625 -1.09375,0 -1.0625,1.09375 -2.15625,1.0625 -1.0625,1.09375 -1.09375,0 -1.0625,1.0625 -1.09375,0 c 0.16689,1.2721 -1.44196,1.11375 -2.15625,1.09375 l -2.15625,1.0625 c 0.16689,1.272 -1.44196,1.0825 -2.15625,1.0625 l -1.0625,0 -1.0625,1.09375 -3.25,0 c 0.16689,1.272 -1.44196,1.0825 -2.15625,1.0625 l -3.21875,0 c -0.20136,1.6743 -4.11148,1.6743 -4.3125,0 l -3.21875,0 c -0.71386,0.0205 -2.32282,0.2091 -2.15625,-1.0625 l -1.09375,0 -1.0625,-1.09375 -2.15625,-1.0625 -1.0625,-1.0625 -1.09375,-1.09375 -1.0625,-1.0625 -1.09375,-1.09375 -1.0625,-1.0625 0,-1.09375 -1.09375,-1.0625 -1.0625,-1.09375 0,-1.0625 c -1.27203,0.1669 -1.11425,-1.44205 -1.09375,-2.15625 l 0,-1.0625 -1.0625,-1.09375 0,-1.0625 -1.09375,-1.09375 0,-1.0625 -1.0625,-1.09375 -1.0625,-2.15625 -1.09375,-1.0625 -2.6875,0 c -0.90308,-1.0942 -2.64012,-1.38285 -3.78125,-2.15625 -9.34586,-0.4738 -17.97315,-5.559 -23.40625,-13.1875 -3.3163,-10.7887 -9.73105,-20.067 -15.625,-29.625 l -5.09375,-2.40625 -12.9375,-1.09375 c -19.2409,-7.677 -39.22145,-22.24828 -46.5625,-42.78125 -2.27295,-3.62746 -5.08331,-7.28063 -5.375,-11.84375 l -1.90625,-2.4375 c -0.15074,-1.94779 -0.0745,-3.81593 1.09375,-5.375 l -4.59375,-5.125 c -2.36555,-1.09288 -4.49295,-2.5079 -6.4375,-4.28125 l -45.78125,-5.9375 c -1.51387,-0.94966 -3.16039,-1.63167 -4.28125,-3.21875 -0.59391,-2.81239 -1.91215,-5.24819 -1.34375,-8.34375 0.8549,-4.45868 4.60172,-7.28278 7.78125,-10.5 l 7.28125,-3.5 c 19.74697,-2.23742 40.44813,-0.80623 60.28125,0 2.53996,1.68066 5.27511,2.34555 8.34375,2.40625 l 8.625,7 c 1.42988,-1.28561 1.94662,-3.13177 2.6875,-4.84375 9.38143,-8.08613 7.30602,-21.10493 8.625,-32.28125 0.83444,-2.06298 2.2495,-3.47761 4.3125,-4.3125 2.2514,-0.54159 4.46173,-1.06662 6.4375,-2.15625 1.85734,-0.0474 3.14683,-1.04142 4.84375,-1.625 5.15477,-8.97981 -0.11364,-20.82304 4.59375,-29.875 l -0.28125,-1.875 c -4.31763,-2.91035 -0.58978,-10.31803 4.3125,-9.15625 0.44566,-1.8778 0.44566,-4.05972 0,-5.9375 -2.37739,-2.48399 -4.68377,-5.04368 -8.0625,-5.90625 -1.93271,-3.38196 -4.59363,-6.10139 -4.84375,-10.21875 -6.78331,0.0215 -12.52452,5.78522 -20.1875,4.03125 -7.24953,-2.69179 -9.93132,-10.4182 -14.28125,-15.875 L -655.125,124.75 c -16.55988,-9.36744 -32.68067,-19.42179 -49.53125,-28 L -745.5625,61.21875 c -2.34617,-4.76771 -3.29627,-9.78962 -4.5625,-14.8125 l -1.09375,0 -1.0625,-2.15625 -1.09375,-1.0625 -1.0625,-1.09375 -3.25,-2.125 -1.0625,-1.09375 c -1.73996,-0.86353 -3.44908,-2.57253 -4.3125,-4.3125 -1.27203,0.16689 -1.0825,-1.44197 -1.0625,-2.15625 l 0,-1.0625 c -1.71412,-0.0603 -0.88939,-2.19898 -1.09375,-3.21875 -0.323,-4.37362 1.43159,-10.56011 -3.21875,-12.9375 l -1.09375,-1.0625 -5.375,-2.15625 -1.0625,-1.09375 L -777.0625,9.8125 -778.125,8.71875 -780.28125,5.5 -781.375,4.4375 -782.4375,2.28125 -783.5,1.1875 l 0,-1.0625 -1.09375,-1.09375 -2.15625,-5.375 c -1.27202,0.16689 -1.0825,-1.44198 -1.0625,-2.15625 -1.22035,-4.67187 -3.89967,-10.23559 -1.09375,-15.0625 l 0,-1.09375 c -0.0205,-0.71386 -0.17785,-2.32282 1.09375,-2.15625 l 5.09375,-5.65625 c 0.21211,-1.50094 0.51759,-2.77473 1.34375,-4.03125 -0.38654,-5.28669 3.24595,-10.14663 7.5625,-12.90625 L -772.75,-50.5 c 2.10498,-1.10687 3.85664,-3.33879 6.46875,-3.21875 l 1.0625,-1.0625 4.3125,-1.09375 1.09375,-1.0625 12.90625,-4.3125 1.0625,-1.09375 4.3125,-1.0625 1.09375,-1.09375 3.21875,-1.0625 c -0.16689,-1.27203 1.44196,-1.0825 2.15625,-1.0625 l 4.3125,-2.15625 c -0.16689,-1.27203 1.44197,-1.11375 2.15625,-1.09375 1.73997,-0.86353 3.44908,-2.57252 4.3125,-4.3125 l 1.0625,-1.0625 1.0625,-3.21875 1.09375,-1.09375 0,-1.0625 c -0.0205,-0.71386 -0.2091,-2.32282 1.0625,-2.15625 l 0.28125,-1.90625 c 1.09265,-1.67215 2.26683,-3.45972 1.875,-5.625 2.06405,-4.01615 0.91568,-9.309618 0.8125,-13.75 l -0.8125,-0.25 -1.0625,-1.09375 -3.25,1.09375 c -0.48129,1.7195 -4.89349,1.7195 -5.375,0 l -3.21875,0 -1.09375,-1.09375 -1.0625,0 -1.09375,-1.0625 -1.0625,-1.09375 -1.0625,-1.0625 -1.09375,-1.09375 -1.0625,-1.0625 -1.09375,-1.09375 -1.0625,-1.0625 -1.09375,-1.0625 -1.0625,-1.09375 -1.09375,-1.0625 -2.15625,-3.25 -1.0625,-1.0625 -1.0625,-1.09375 -3.25,-4.28125 -1.0625,-1.09375 -7.8125,-8.34375 -1.875,-0.28125 -6.46875,-1.0625 c -2.56904,-0.2035 -5.39096,-1.83282 -6.46875,-4.3125 l -1.0625,-1.0625 1.0625,-8.625 1.09375,-1.0625 1.0625,-3.25 c -0.0205,-0.71386 -0.17785,-2.32281 1.09375,-2.15625 l 0,-6.4375 -1.09375,-1.09375 -1.0625,-1.0625 -5.40625,0 c 0.16689,1.27203 -1.44197,1.0826 -2.15625,1.0625 l -2.125,1.09375 -1.09375,1.0625 -7.53125,5.375 -1.09375,1.09375 -1.0625,0 -1.0625,1.0625 c -3.40673,0.24441 -6.68672,-0.0171 -9.71875,-1.0625 l -1.0625,-1.09375 -2.15625,-1.0625 -1.0625,-1.09375 -1.09375,-1.0625 -3.21875,-1.0625 -5.375,-1.09375 -1.09375,0 -0.28125,0.8125 c -4.02584,0.44833 -8.34916,0.44833 -12.375,0 l -0.25,-0.8125 c -1.99408,-0.21427 -4.67473,-1.10193 -5.40625,-3.21875 l -1.0625,-1.09375 c 0.35316,-1.66245 -0.32745,-2.98491 -1.09375,-4.3125 l -1.0625,-1.0625 c -0.51898,-1.38249 -1.83625,-2.69934 -3.21875,-3.21875 l -1.09375,-1.09375 -1.0625,0 -1.09375,-1.0625 -2.15625,0 -1.0625,-1.09375 -1.09375,0 -1.0625,-1.0625 c -1.02396,-0.19381 -1.96266,-1.13229 -2.15625,-2.15625 l -1.0625,-1.09375 c -0.73755,-2.51952 -1.08795,-5.95063 -3.25,-7.53125 l -1.0625,-1.0625 c -4.2907,2.81023 0.0925,10.6613 -5.40625,12.90625 -1.18977,2.14482 -5.09549,0.8577 -7.25,0.8125 l -0.28125,-0.8125 c -1.66245,0.35316 -2.98492,-0.2962 -4.3125,-1.0625 l -1.0625,-1.09375 c -2.07806,-0.43715 -2.23657,-2.83199 -3.21875,-4.28125 l -1.09375,-1.09375 0,-1.0625 c -1.27202,0.16689 -1.0825,-1.44196 -1.0625,-2.15625 l -1.09375,-4.3125 c -1.71413,-0.0603 -0.85814,-2.19899 -1.0625,-3.21875 0.25303,-2.89852 -0.77653,-6.18839 1.0625,-8.625 l 1.09375,-1.09375 3.21875,-1.0625 c 0.0603,-1.71413 2.19898,-0.85814 3.21875,-1.0625 l 4.3125,0 7.53125,1.0625 6.46875,0 11.84375,0 c 2.01992,-0.98304 4.57966,-1.94265 5.40625,-4.3125 l 1.0625,-1.0625 0,-2.15625 c -1.27202,0.16689 -1.0825,-1.44196 -1.0625,-2.15625 -2.53028,-5.47402 -6.94149,-10.35209 -11.875,-14 l -1.0625,-1.09375 -7.53125,-5.375 -8.625,0 -3.21875,0 c -0.0603,1.71413 -2.23024,0.88939 -3.25,1.09375 l -3.21875,0 c -0.20135,1.67429 -4.11149,1.67429 -4.3125,0 l -3.21875,0 -1.09375,-1.09375 -1.0625,0 -1.0625,-1.0625 c -1.5677,-0.72463 -3.60069,-2.31735 -3.25,-4.3125 -1.71953,-0.48129 -1.71953,-4.89349 0,-5.375 -0.44576,-3.70067 4.2641,-5.22687 4.3125,-8.625 -0.71386,0.0205 -2.32282,0.2091 -2.15625,-1.0625 -2.09744,-1.21454 -4.16046,-3.30773 -5.375,-5.40625 l -1.09375,-1.0625 c 0.15074,-1.94778 0.10574,-3.81592 -1.0625,-5.375 l -0.28125,-7.15625 -0.15625,0 z m -4.9375,85.75 2.15625,0 c 0.0602,1.71413 2.1991,0.85814 3.21875,1.0625 l 1.0625,1.09375 1.09375,0 1.0625,1.0625 c 1.02397,0.19359 1.96244,1.13229 2.15625,2.15625 l 1.09375,1.09375 0,1.0625 1.0625,1.0625 0,1.09375 1.09375,1.0625 0,3.25 -1.09375,1.0625 -1.0625,1.09375 -1.09375,1.0625 -1.0625,1.09375 -1.09375,0 -4.3125,0 -1.0625,0 -1.0625,-1.09375 -1.09375,-1.0625 -1.0625,0 -1.09375,-1.09375 -1.0625,-1.0625 -1.09375,-1.09375 0,-1.0625 -1.0625,-1.09375 0,-1.0625 0,-1.09375 0,-4.28125 0,-2.15625 1.0625,-1.09375 c 1.01976,-0.20436 3.1897,0.65163 3.25,-1.0625 z m 60.28125,35.53125 2.15625,0 3.21875,0 1.09375,1.0625 1.0625,1.09375 1.09375,0 1.0625,1.0625 1.09375,1.09375 0,1.0625 1.0625,1.09375 c 0.72194,2.2751 -1.68443,2.35325 -3.21875,2.125 l -1.09375,-1.0625 -1.0625,0 -1.09375,-1.0625 -1.0625,-1.09375 -1.0625,0 -1.09375,-1.0625 -1.0625,-1.09375 -1.09375,-3.21875 z m 102.28125,137.8125 c -0.0603,1.71413 -2.19899,0.85814 -3.21875,1.0625 l -1.0625,0 -1.09375,1.09375 c -2.03327,0.32086 -2.13944,2.45709 -2.40625,4.03125 -3.68238,6.5841202 2.97396,16.18703 10.75,12.9375 l 0.28125,-0.8125 1.0625,-1.09375 c 2.45599,-1.56878 4.89996,-3.98151 6.46875,-6.4375 l 1.0625,-1.09375 1.09375,-1.0625 1.0625,-1.09375 1.09375,-1.0625 1.0625,-1.09375 0,-2.15625 c -0.28318,-1.39003 -1.77058,-2.51544 -3.21875,-2.15625 -1.01965,-0.20436 -3.1899,0.65163 -3.25,-1.0625 l -3.21875,0 -3.21875,0 -3.25,0 z m -189.5,354.25 5.40625,0 1.0625,1.0625 0,1.09375 0,4.28125 0,3.25 -1.0625,1.0625 0,1.09375 -1.09375,1.0625 -4.3125,0 -1.0625,0 -1.09375,-1.0625 c -1.2716,0.1665 -1.083,-1.44235 -1.0625,-2.15625 l 0,-3.25 0,-1.0625 0,-1.0625 1.0625,-1.09375 0,-1.0625 1.09375,-1.09375 1.0625,-1.0625 z"
   transform="matrix(0.59582921,0,0,0.60200901,837.20022,166.92159)"
   id="rect1307" />
  <path
   style="fill:#003399"
   d="m -1342.375,96.46875 c -0.4883,1.91226 -1.2374,3.71313 -2.9062,5.125 l -0.2813,2.96875 c 1.2468,1.48048 0.93,3.33765 1.3437,5.125 5.6366,7.02019 12.208,13.46557 16.1563,21.53125 3.0472,1.18222 6.0436,1.86878 8.0625,4.84375 1.9731,5.56663 5.5641,11.85929 2.1562,17.75 l -3.75,0.53125 -0.2812,1.90625 c 4.2358,6.40645 8.5817,12.7181 13.7188,18.5625 l 0.2812,6.1875 c -4.1239,6.2428 -13.8034,1.58436 -18.5625,7.28125 -1.7119,0.74079 -3.5581,1.25762 -4.8437,2.6875 -0.4434,1.52249 -0.4434,3.32126 0,4.84375 8.7967,7.91171 18.8566,15.15918 30.9374,15.34375 l 2.4376,1.875 4.0312,0.28125 3.5,1.875 c 10.0241,2.05656 18.7985,7.78303 26.9062,14 5.2694,2.47428 10.3702,5.26671 15.0938,8.625 l 8.3438,1.34375 19.0937,0.25 0.2813,0.8125 8.5937,2.15625 12.125,-8.34375 c 6.5465,-2.06729 14.6624,-2.3162 19.375,3.78125 1.9984,0.93392 3.8445,1.77476 6.1875,1.34375 5.0724,-1.45034 8.4011,-10.38563 14,-7.53125 1.1596,0.11068 2.7389,-0.443 3.5,0.78125 l 2.9688,0.28125 c 6.019,-4.55503 13.4701,-4.20568 20.4687,-5.375 l 8.875,7.25 c 6.7618,-0.0883 13.1377,2.22327 18.3125,6.46875 13.7064,4.36072 23.5369,16.03634 37.125,21 l 5.9375,9.15625 12.375,9.15625 c 0.1712,1.4148 1.1655,2.31064 2.1563,3.21875 l 2.6874,13.46875 c 2.6961,5.73996 11.2648,8.81648 9.4376,16.40625 l 0.25,2.96875 9.1562,0.53125 c 1.3858,2.16743 1.3125,4.5171 1.625,7 l 10.75,7.53125 c 4.9939,-0.24219 12.4751,0.90404 11.8438,7.53125 1.9477,3.45408 5.8929,2.98191 8.0937,5.9375 l 0.0937,0.71875 58.3125,0 0,-3.15625 0,-1.0625 0,-1.0625 1.0625,-1.09375 0,-1.0625 1.09375,-1.09375 1.0625,-1.0625 5.40625,0 1.0625,1.0625 0,1.09375 0,4.28125 0,3.15625 21.0625,0 c 1.69698,-1.71846 3.3796,-3.41443 5.0625,-5.03125 3.57049,-1.16365 7.38147,-1.93701 11.28125,-1.0625 l 8.625,4.28125 1.375,1.8125 287.53125,0 -4.375,-2.0625 -12.9375,-1.09375 c -19.24092,-7.67701 -39.22147,-22.24828 -46.5625,-42.78125 -2.27297,-3.62747 -5.08331,-7.28063 -5.375,-11.84375 l -1.90625,-2.4375 c -0.15071,-1.94779 -0.0745,-3.81594 1.09375,-5.375 l -4.59375,-5.125 c -2.36561,-1.09287 -4.49298,-2.5079 -6.4375,-4.28125 l -45.78125,-5.9375 c -1.51386,-0.94965 -3.16029,-1.63168 -4.28125,-3.21875 -0.59379,-2.8124 -1.9122,-5.24818 -1.34375,-8.34375 0.85494,-4.45867 4.60165,-7.28279 7.78125,-10.5 l 7.28125,-3.5 c 19.74693,-2.23742 40.44805,-0.80623 60.28125,0 2.53999,1.68066 5.27525,2.34562 8.34375,2.40625 l 8.625,7 c 1.42977,-1.28561 1.94652,-3.13177 2.6875,-4.84375 9.38138,-8.08612 7.306,-21.10492 8.625,-32.28125 0.83447,-2.06298 2.24949,-3.47761 4.3125,-4.3125 2.25132,-0.5416 4.46177,-1.06662 6.4375,-2.15625 1.85741,-0.0474 3.14679,-1.04142 4.84375,-1.625 5.15483,-8.97982 -0.11364,-20.82304 4.59375,-29.875 l -0.28125,-1.875 c -4.31768,-2.91034 -0.58974,-10.31803 4.3125,-9.15625 0.44577,-1.8778 0.44577,-4.05972 0,-5.9375 -2.37736,-2.48398 -4.68368,-5.04367 -8.0625,-5.90625 -1.9326,-3.38196 -4.59368,-6.10139 -4.84375,-10.21875 -6.78332,0.0215 -12.52457,5.78523 -20.1875,4.03125 -7.24956,-2.69179 -9.93135,-10.4182 -14.28125,-15.875 L -655.125,124.75 c -16.55995,-9.36743 -32.68062,-19.42179 -49.53125,-28 l -0.3125,-0.28125 -637.40625,0 z"
   transform="matrix(0.59582921,0,0,0.60200901,837.20022,166.92159)"
   id="rect4" />
  <g
   id="_60755152"
   transform="translate(3.6941851,0)">
   <polygon
   id="_60633024"
   class="fil2 str0"
   points="98.517,120.298 98.517,120.298 98.517,120.298 "
   style="fill:none;stroke:#000000;stroke-width:0.36300001" />
   <polygon
   id="_60632336"
   class="fil2 str0"
   points="89.9982,80.9958 89.9982,80.9958 89.9982,80.9958 "
   style="fill:none;stroke:#000000;stroke-width:0.36300001" />
   <polygon
   id="_60631344"
   class="fil2 str0"
   points="89.9982,80.9958 89.9982,80.9958 89.9982,80.9958 "
   style="fill:none;stroke:#000000;stroke-width:0.36300001" />
   <g
   id="_149188240">
    <path
   id="path9658"
   class="fil3"
   d="m 150.028,21.0006 -1.8762,5.7858 -4.8216,14.8404 -15.5892,0 -6.108,0 4.9284,3.5898 12.6426,9.1602 -4.8216,14.787 -1.875,5.7858 4.929,-3.5886 12.5886,-9.1074 12.5886,9.1074 4.929,3.5886 -1.875,-5.7858 -4.8216,-14.8374 12.5886,-9.1068 4.9278,-3.5898 -6.0528,-6e-4 -15.588,0 -4.8222,-14.8404 -1.8708,-5.7882 -6e-4,0 z m 0,12.804 3.3756,10.3932 0.4284,1.3938 1.4478,0 10.8744,0 -8.7864,6.3738 -1.1778,0.858 0.4824,1.3926 3.3756,10.3926 -8.841,-6.4278 -1.1772,-0.858 -1.1778,0.858 -8.8404,6.4278 3.3756,-10.3926 0.429,-1.3926 -1.1274,-0.858 -8.7864,-6.3738 10.875,0 1.4478,0 0.4278,-1.3938 3.3744,-10.3932 0,0 6e-4,0 z"
   style="fill:#ffd700" />
    <g
   id="g18">
     <path
   id="path1376"
   class="fil3"
   d="m 150.146,80.9958 c 33.6216,12.15 54.7308,40.485 54.8928,61.2216 0.3582,45.9054 -49.7532,68.1006 -82.059,31.1058 l -2.2614,1.6638 0.57,3.9576 c -7.0908,-0.672 -14.349,14.8422 -19.9032,19.2 -6.2226,6.78 -15.4932,-0.4518 -8.8128,-8.718 5.1594,-7.4172 17.2704,-10.77 19.2684,-19.9248 l 3.7404,0.2844 3.2826,-3.3756 2.9508,0.5538 3.9438,-4.0722 c 31.4178,33.285 72.5568,6.4518 64.6542,-25.6266 -2.3142,-25.3968 -19.02,-39.8904 -40.2666,-56.2698 l 0,0 0,0 z"
   style="fill:#ffd700" />
     <path
   id="polygon1374"
   class="fil3"
   d="m 98.517,120.298 13.971,14.061 11.2542,-11.7192 c 25.2798,26.1222 50.5578,52.2414 75.834,78.3612 5.613,-1.2762 8.6328,-3.4548 10.4274,-9.954 l -77.922,-76.6092 15.7254,-14.0622 -22.8996,-6.2496 -26.3904,26.1732 0,0 0,-0.001 z"
   style="fill:#ffd700" />
    </g>
   </g>
  </g>
 </g>
 <g
   id="Layer_x0020_1"
   transform="translate(1383.3791,277.28124)">
  <metadata
   id="CorelCorpID_1Corel-Layer" />
 </g>
 <g
   id="Layer_x0020_1_0"
   transform="translate(1383.3791,277.28124)">
  <metadata
   id="CorelCorpID_2Corel-Layer" />
 </g>
</svg>